<svg width="801" height="281" viewBox="0 0 801 281" fill="none" xmlns="http://www.w3.org/2000/svg">
<path d="M786.5 0.621704C250 49.1217 141 60.6217 29.5 242.122C425.5 323.622 596 192.122 786.5 0.621704Z" fill="#58CE37" fill-opacity="0.3"/>
<path d="M29.5 242.122C141 60.6217 250 49.1217 786.5 0.621704C596 192.122 425.5 323.622 29.5 242.122ZM29.5 242.122C230.551 220.092 482.5 156.122 591.5 68.6217" stroke="black"/>
<path d="M193.692 242.622C106.816 189.596 109.524 158.48 193.692 101.122C137.192 156.622 147.192 191.122 193.692 242.622Z" fill="#FF820D"/>
<path d="M211.5 242.622V101.122H228.5V156.622H247V101.122H265V242.622H247V187.622H228.5V242.622H211.5Z" fill="#FF820D"/>
<path d="M376.182 101.122V242.622H389.182V156.622L419.682 205.622L447.182 156.622V242.622H463.681V101.122H447.182L419.682 170.622L389.182 101.122H376.182Z" fill="#FF820D"/>
<path d="M573.499 101.122V242.622H586.499V156.622L616.999 205.622L644.499 156.622V242.622H660.999V101.122H644.499L616.999 170.622L586.499 101.122H573.499Z" fill="#FF820D"/>
<path fill-rule="evenodd" clip-rule="evenodd" d="M0.5 242.622V26.6217H27C101.229 65.7032 106.68 89.1195 27 134.622V160.786V190.148V220.396V233.55V233.999V241.995V242.605V242.622H0.5ZM27 62.1217C27 62.1217 70 71.6217 27 90.1217V62.1217Z" fill="#FF820D"/>
<path fill-rule="evenodd" clip-rule="evenodd" d="M50.9999 242.622L87 101.122L135 242.622L87 187.622L50.9999 242.622ZM79 170.622L87 134.622L98 170.622H79Z" fill="#FF820D"/>
<path fill-rule="evenodd" clip-rule="evenodd" d="M277.318 242.622L313.318 101.122L337.318 171.872L361.318 242.622L313.318 187.622L277.318 242.622ZM305.318 170.622L313.318 134.622L324.318 170.622H305.318Z" fill="#FF820D"/>
<path fill-rule="evenodd" clip-rule="evenodd" d="M471.979 242.622L507.978 101.122L555.978 242.622L507.978 187.622L471.979 242.622ZM499.979 170.622L507.978 134.622L518.978 170.622H499.979Z" fill="#FF820D"/>
<path fill-rule="evenodd" clip-rule="evenodd" d="M674.745 242.622L710.745 101.122L756.879 237.122L758.745 242.622L746.161 228.203L710.745 187.622L674.745 242.622ZM702.745 170.622L710.745 134.622L721.745 170.622H702.745Z" fill="#FF820D"/>
<path d="M79 170.622H79.5C88 159.622 82.9753 152.733 79 170.622Z" fill="#FF820D"/>
<path d="M80 170.622H80.5C92 161.622 88 155.122 80 170.622Z" fill="#FA19BA"/>
<path d="M81 170.622H81.5C93.5 166.122 91.5 159.622 81 170.622Z" fill="#E6F01F"/>
<path d="M82 170.622H82.5C94.5 170.622 92 165.122 82 170.622Z" fill="#1EDEFC"/>
<path d="M305.318 170.622H305.818C314.318 159.622 309.294 152.733 305.318 170.622Z" fill="#FF820D"/>
<path d="M306.318 170.622H306.818C318.318 161.622 314.318 155.122 306.318 170.622Z" fill="#A12F9D"/>
<path d="M307.318 170.622H307.818C319.818 166.122 317.818 159.622 307.318 170.622Z" fill="#E1292C"/>
<path d="M308.318 170.622H308.818C320.818 170.622 318.318 165.122 308.318 170.622Z" fill="#FA19BA"/>
<path d="M499.979 170.622H500.479C508.979 159.622 503.954 152.733 499.979 170.622Z" fill="#00D5FF"/>
<path d="M500.979 170.622H501.479C512.979 161.622 508.979 155.122 500.979 170.622Z" fill="#FA19BA"/>
<path d="M502.978 170.622H503.478C515.478 170.622 512.978 165.122 502.978 170.622Z" fill="#D216F3"/>
<path d="M501.979 170.622H502.478C514.478 166.122 512.479 159.622 501.979 170.622Z" fill="#E6F01F"/>
<path d="M702.745 170.622H703.245C711.745 159.622 706.72 152.733 702.745 170.622Z" fill="#FF820D"/>
<path d="M703.745 170.622H704.245C715.745 161.622 711.745 155.122 703.745 170.622Z" fill="#D216F3"/>
<path d="M704.745 170.622H705.245C717.245 166.122 715.245 159.622 704.745 170.622Z" fill="#00D5FF"/>
<path d="M705.745 170.622H706.245C718.245 170.622 715.745 165.122 705.745 170.622Z" fill="#FA19BA"/>
<path fill-rule="evenodd" clip-rule="evenodd" d="M26.5002 218.247V205.247V191.747C26.664 191.211 26.8306 190.678 27 190.148V220.396C26.8339 220.516 26.6673 220.633 26.5002 220.747V218.247Z" fill="#3AA12F"/>
<path fill-rule="evenodd" clip-rule="evenodd" d="M27 190.148V160.786C26.8097 161.901 26.6432 163.054 26.5002 164.247V191.747C26.664 191.211 26.8306 190.678 27 190.148Z" fill="#3AA12F"/>
<path fill-rule="evenodd" clip-rule="evenodd" d="M26.5002 234.497V220.747C26.6673 220.633 26.8339 220.516 27 220.396V233.55C27 233.55 26.6667 234.177 26.5002 234.497Z" fill="#3AA12F"/>
<path fill-rule="evenodd" clip-rule="evenodd" d="M26.5002 242.622V234.497C26.6667 234.177 27 233.55 27 233.55V233.999V241.995V242.605C27 242.605 26.6671 242.622 26.5002 242.622Z" fill="#3AA12F"/>
<path d="M758.745 242.622L755.739 239.178L755.5 238.904C755.511 239.024 755.522 239.141 755.534 239.256C755.546 239.372 755.56 239.486 755.573 239.597C755.585 239.689 755.597 239.78 755.61 239.868C755.622 239.954 755.635 240.038 755.648 240.12C755.669 240.25 755.692 240.377 755.715 240.5C755.723 240.541 755.731 240.582 755.739 240.622C755.778 240.814 755.82 240.996 755.865 241.169C755.906 241.33 755.95 241.482 755.996 241.627C756.079 241.889 756.169 242.125 756.265 242.338C756.329 242.479 756.395 242.609 756.463 242.729C756.581 242.938 756.706 243.117 756.836 243.269C756.929 243.377 757.024 243.471 757.121 243.552C757.234 243.647 757.35 243.724 757.468 243.785C757.833 243.974 758.213 244.006 758.581 243.919C758.728 243.884 758.874 243.829 759.015 243.758C759.236 243.647 759.447 243.495 759.641 243.312C759.8 243.16 759.948 242.988 760.079 242.8C760.173 242.666 760.258 242.523 760.334 242.375C760.43 242.189 760.51 241.992 760.572 241.791C760.629 241.603 760.671 241.411 760.694 241.217C760.714 241.054 760.721 240.89 760.714 240.726C760.705 240.522 760.674 240.319 760.618 240.12C760.565 239.931 760.489 239.746 760.389 239.568C760.334 239.469 760.271 239.373 760.2 239.279C760.106 239.156 759.998 239.037 759.876 238.924C759.706 238.766 759.507 238.62 759.277 238.489C759.189 238.439 759.097 238.391 759 238.346C758.893 238.295 758.78 238.247 758.661 238.203C758.586 238.175 758.508 238.147 758.428 238.122C758.336 238.092 758.241 238.064 758.143 238.038C758.038 238.01 757.929 237.984 757.817 237.961C757.714 237.939 757.609 237.919 757.5 237.901C757.379 237.882 757.254 237.864 757.125 237.849L758.745 242.622Z" fill="#E6F01F"/>
<path d="M759.352 235.107C760.584 231.188 761.822 227.658 763.041 224.496C771.923 194.369 761.006 183.48 758.344 217.779C758.677 222.641 758.584 228.581 757.791 235.541C757.796 236.334 757.805 237.141 757.817 237.961C757.929 237.984 758.038 238.01 758.143 238.038C758.565 237.048 758.968 236.071 759.352 235.107Z" fill="#FF820D"/>
<path d="M760.202 236.428C764.128 230.265 767.929 225.283 771.424 221.356C785.896 198.211 775.364 192.549 763.041 224.496C762.064 227.811 760.847 231.36 759.352 235.107C759.044 236.087 758.736 237.092 758.428 238.122C758.508 238.147 758.586 238.175 758.661 238.203C759.187 237.606 759.7 237.014 760.202 236.428Z" fill="#4418F7"/>
<path d="M762.506 236.534C767.456 232.827 771.839 229.835 775.67 227.457C799.368 208.949 789.507 201.034 771.424 221.356C768.653 225.786 764.967 230.857 760.202 236.428C759.803 237.055 759.402 237.694 759 238.346C759.097 238.391 759.189 238.439 759.277 238.489C760.388 237.831 761.464 237.179 762.506 236.534Z" fill="#3AA12F"/>
<path d="M762.619 238.481C768.32 236.642 773.417 235.317 777.875 234.402C802.234 225.314 803.473 210.204 775.67 227.457C772.081 230.26 767.722 233.306 762.506 236.534C761.464 237.179 760.388 237.831 759.277 238.489C759.507 238.62 759.706 238.766 759.876 238.924C760.807 238.786 761.721 238.638 762.619 238.481Z" fill="#00D5FF"/>
<path d="M760.2 239.279C760.271 239.373 760.334 239.469 760.389 239.568C808.889 242.688 810.238 227.754 777.875 234.402C773.518 236.027 768.421 237.46 762.619 238.481C761.824 238.737 761.018 239.003 760.2 239.279Z" fill="#FA19BA"/>
<path d="M760.618 240.12C760.674 240.319 760.705 240.522 760.714 240.726C761.843 241.279 762.947 241.804 764.025 242.301C768.969 243.972 773.188 245.688 776.729 247.363C806.535 257.14 804.205 239.425 760.618 240.12Z" fill="#F8AA18"/>
<path d="M760.694 241.217C760.671 241.411 760.629 241.603 760.572 241.791C791.479 270.379 803.495 260.027 776.729 247.363C772.993 246.138 768.753 244.48 764.025 242.301C762.949 241.937 761.839 241.576 760.694 241.217Z" fill="#E6F01F"/>
<path d="M760.334 242.375C760.258 242.523 760.173 242.666 760.079 242.8C760.545 243.848 761.013 244.863 761.48 245.846C766.272 252.574 769.498 258.152 771.529 262.576C785.587 280.393 792.67 266.953 760.334 242.375Z" fill="#D216F3"/>
<path d="M759.641 243.312C759.447 243.495 759.236 243.647 759.015 243.758C759.145 244.973 759.294 246.152 759.46 247.295C760.454 251.268 761.207 254.857 761.757 258.073C767.97 279.415 779.903 280.81 771.529 262.576C768.405 258.616 764.937 253.113 761.48 245.846C760.891 245.019 760.278 244.174 759.641 243.312Z" fill="#4418F7"/>
<path d="M758.581 243.919C758.213 244.006 757.833 243.974 757.468 243.785C757.309 244.585 757.16 245.372 757.022 246.146C756.737 252.447 756.16 257.768 755.424 262.153C755.224 285.803 766.705 287.016 761.757 258.073C760.838 254.917 760.044 251.325 759.46 247.295C759.185 246.199 758.893 245.074 758.581 243.919Z" fill="#FA19BA"/>
<path d="M757.121 243.552C757.024 243.471 756.929 243.377 756.836 243.269C739.612 280.044 750.733 290.117 755.424 262.153C755.462 257.623 755.929 252.269 757.022 246.146C757.06 245.299 757.093 244.435 757.121 243.552Z" fill="#00D5FF"/>
<path d="M756.265 242.338C756.329 242.479 756.395 242.609 756.463 242.729C741 287.506 720.12 275.646 756.265 242.338Z" fill="#A12F9D"/>
<path d="M755.865 241.169C755.906 241.33 755.95 241.482 755.996 241.627C728.698 275.428 710.955 257.046 755.865 241.169Z" fill="#F8AA18"/>
<path d="M755.715 240.5C755.692 240.377 755.669 240.25 755.648 240.12C701.02 238.945 718.521 258.612 755.739 240.622C755.731 240.582 755.723 240.541 755.715 240.5Z" fill="#3AA12F"/>
<path d="M755.61 239.868C755.597 239.78 755.585 239.689 755.573 239.597C753.161 238.416 750.906 237.175 748.813 235.904C711.412 218.346 717.682 241.002 755.61 239.868Z" fill="#3AA12F"/>
<path d="M756.879 237.122L757.125 237.849C757.254 237.864 757.379 237.882 757.5 237.901C757.606 237.102 757.703 236.315 757.791 235.541C757.747 228.626 757.959 222.732 758.344 217.779C756.612 192.553 743.389 196.353 756.879 237.122Z" fill="#A12F9D"/>
<path d="M755.5 238.904L746.161 228.203C721.949 202.306 724.404 221.088 748.813 235.904C750.915 236.891 753.154 238.004 755.534 239.256C755.522 239.141 755.511 239.024 755.5 238.904Z" fill="#D216F3"/>
<path d="M79 170.622L87 134.622L98 170.622H79ZM79 170.622C82.9753 152.733 88 159.622 79.5 170.622H79ZM305.318 170.622L313.318 134.622L324.318 170.622H305.318ZM305.318 170.622C309.294 152.733 314.318 159.622 305.818 170.622H305.318ZM499.979 170.622L507.978 134.622L518.978 170.622H499.979ZM499.979 170.622C503.954 152.733 508.979 159.622 500.479 170.622H499.979ZM758.745 242.622L756.879 237.122M758.745 242.622L755.739 239.178M758.745 242.622L757.125 237.849M758.745 242.622L746.161 228.203M702.745 170.622L710.745 134.622L721.745 170.622H702.745ZM702.745 170.622C706.72 152.733 711.745 159.622 703.245 170.622H702.745ZM26.5002 234.497V220.747M26.5002 234.497V242.622M26.5002 234.497C26.6667 234.177 27 233.55 27 233.55M26.5002 234.497L27 233.999M26.5002 191.747V164.247C26.6432 163.054 26.8097 161.901 27 160.786M26.5002 191.747V205.247V218.247V220.747M26.5002 191.747C26.664 191.211 26.8306 190.678 27 190.148M26.5002 220.747C26.6673 220.633 26.8339 220.516 27 220.396M26.5002 242.622L27 241.995M26.5002 242.622C26.6671 242.622 27 242.605 27 242.605M27 190.148V220.396M27 190.148V160.786M27 220.396V233.55M27 160.786V134.622C106.68 89.1195 101.229 65.7032 27 26.6217H0.5V242.622H27V242.605M27 233.55V233.999M27 233.999V241.995M27 241.995V242.605M755.5 238.904L755.739 239.178M755.5 238.904C755.511 239.024 755.522 239.141 755.534 239.256M755.5 238.904L746.161 228.203M757.125 237.849C757.37 237.878 757.6 237.915 757.817 237.961M757.125 237.849C757.254 237.864 757.379 237.882 757.5 237.901M757.125 237.849L756.879 237.122M756.879 237.122L710.745 101.122L674.745 242.622L710.745 187.622L746.161 228.203M756.879 237.122C743.389 196.353 756.612 192.553 758.344 217.779M757.5 237.901C757.609 237.919 757.714 237.939 757.817 237.961M757.5 237.901C757.606 237.102 757.703 236.315 757.791 235.541M757.817 237.961C757.929 237.984 758.038 238.01 758.143 238.038M757.817 237.961C759.517 238.319 760.351 239.169 760.618 240.12M757.817 237.961C757.805 237.141 757.796 236.334 757.791 235.541M758.143 238.038C758.241 238.064 758.336 238.092 758.428 238.122M758.143 238.038C758.565 237.048 758.968 236.071 759.352 235.107M758.428 238.122C758.508 238.147 758.586 238.175 758.661 238.203M758.428 238.122C758.736 237.092 759.044 236.087 759.352 235.107M758.661 238.203C758.78 238.247 758.893 238.295 759 238.346M758.661 238.203C759.187 237.606 759.7 237.014 760.202 236.428M759 238.346C759.097 238.391 759.189 238.439 759.277 238.489M759 238.346C759.402 237.694 759.803 237.055 760.202 236.428M759.277 238.489C759.507 238.62 759.706 238.766 759.876 238.924M759.277 238.489C760.388 237.831 761.464 237.179 762.506 236.534M759.63 238.72C760.609 237.965 761.568 237.237 762.506 236.534M759.876 238.924C759.998 239.037 760.106 239.156 760.2 239.279M759.876 238.924C760.807 238.786 761.721 238.638 762.619 238.481M760.2 239.279C760.271 239.373 760.334 239.469 760.389 239.568M760.2 239.279C761.018 239.003 761.824 238.737 762.619 238.481M760.389 239.568C760.489 239.746 760.565 239.931 760.618 240.12M760.389 239.568C808.889 242.688 810.238 227.754 777.875 234.402M760.5 240.122C760.539 240.121 760.579 240.12 760.618 240.12M760.5 240.622C760.571 240.657 760.643 240.692 760.714 240.726M760.389 241.122C760.491 241.153 760.593 241.185 760.694 241.217M760.389 241.622C760.45 241.678 760.511 241.734 760.572 241.791M760 242.122C760.112 242.206 760.223 242.291 760.334 242.375M760 242.622C760.026 242.681 760.053 242.741 760.079 242.8M759.5 243.122C759.547 243.185 759.594 243.248 759.641 243.312M759 243.622C759.005 243.667 759.01 243.713 759.015 243.758M758.5 243.622C758.527 243.721 758.554 243.82 758.581 243.919M757.5 243.622C757.489 243.676 757.478 243.731 757.468 243.785M757.125 243.403C757.124 243.453 757.122 243.503 757.121 243.552M756.879 243.178C756.865 243.208 756.85 243.238 756.836 243.269M756.5 242.622C756.488 242.658 756.475 242.694 756.463 242.729M756.5 242.122C756.422 242.194 756.343 242.266 756.265 242.338M756 241.622C755.999 241.623 755.997 241.625 755.996 241.627M756 241.122C755.955 241.138 755.91 241.154 755.865 241.169M755.739 240.622C755.778 240.814 755.82 240.996 755.865 241.169M755.739 240.622C718.521 258.612 701.02 238.945 755.648 240.12M755.739 240.622C755.731 240.582 755.723 240.541 755.715 240.5M755.739 240.122C755.709 240.121 755.679 240.12 755.648 240.12M755.739 239.865C755.696 239.866 755.653 239.867 755.61 239.868M755.739 239.365C755.671 239.328 755.602 239.292 755.534 239.256M755.739 239.678C755.684 239.651 755.629 239.624 755.573 239.597M755.739 239.178C752.178 234.859 748.988 231.227 746.161 228.203M755.534 239.256C755.546 239.372 755.56 239.486 755.573 239.597M755.534 239.256C753.154 238.004 750.915 236.891 748.813 235.904M755.573 239.597C755.585 239.689 755.597 239.78 755.61 239.868M755.573 239.597C753.161 238.416 750.906 237.175 748.813 235.904M755.61 239.868C755.622 239.954 755.635 240.038 755.648 240.12M755.61 239.868C717.682 241.002 711.412 218.346 748.813 235.904M755.648 240.12C755.669 240.25 755.692 240.377 755.715 240.5M755.865 241.169C755.906 241.33 755.95 241.482 755.996 241.627M755.865 241.169C710.955 257.046 728.698 275.428 755.996 241.627M755.865 241.169C755.811 240.96 755.761 240.737 755.715 240.5M755.996 241.627C756.079 241.889 756.169 242.125 756.265 242.338M756.265 242.338C756.329 242.479 756.395 242.609 756.463 242.729M756.265 242.338C720.12 275.646 741 287.506 756.463 242.729M756.463 242.729C756.581 242.938 756.706 243.117 756.836 243.269M756.836 243.269C756.929 243.377 757.024 243.471 757.121 243.552M756.836 243.269C739.612 280.044 750.733 290.117 755.424 262.153M757.121 243.552C757.234 243.647 757.35 243.724 757.468 243.785M757.121 243.552C757.093 244.435 757.06 245.299 757.022 246.146M757.468 243.785C757.833 243.974 758.213 244.006 758.581 243.919M757.468 243.785C757.309 244.585 757.16 245.372 757.022 246.146M758.581 243.919C758.728 243.884 758.874 243.829 759.015 243.758M758.581 243.919C758.893 245.074 759.185 246.199 759.46 247.295M759.015 243.758C759.236 243.647 759.447 243.495 759.641 243.312M759.015 243.758C759.145 244.973 759.294 246.152 759.46 247.295M759.641 243.312C759.8 243.16 759.948 242.988 760.079 242.8M759.641 243.312C760.278 244.174 760.891 245.019 761.48 245.846M760.079 242.8C760.173 242.666 760.258 242.523 760.334 242.375M760.079 242.8C760.545 243.848 761.013 244.863 761.48 245.846M760.334 242.375C760.43 242.189 760.51 241.992 760.572 241.791M760.334 242.375C792.67 266.953 785.587 280.393 771.529 262.576M760.572 241.791C760.629 241.603 760.671 241.411 760.694 241.217M760.572 241.791C791.479 270.379 803.495 260.027 776.729 247.363M760.694 241.217C760.714 241.054 760.721 240.89 760.714 240.726M760.694 241.217C761.839 241.576 762.949 241.937 764.025 242.301M760.714 240.726C760.705 240.522 760.674 240.319 760.618 240.12M760.714 240.726C761.843 241.279 762.947 241.804 764.025 242.301M760.618 240.12C804.205 239.425 806.535 257.14 776.729 247.363M757.791 235.541C757.747 228.626 757.959 222.732 758.344 217.779M757.791 235.541C758.584 228.581 758.677 222.641 758.344 217.779M758.344 217.779C761.006 183.48 771.923 194.369 763.041 224.496M759.352 235.107C760.584 231.188 761.822 227.658 763.041 224.496M759.352 235.107C760.847 231.36 762.064 227.811 763.041 224.496M763.041 224.496C775.364 192.549 785.896 198.211 771.424 221.356M760.202 236.428C764.128 230.265 767.929 225.283 771.424 221.356M760.202 236.428C764.967 230.857 768.653 225.786 771.424 221.356M771.424 221.356C789.507 201.034 799.368 208.949 775.67 227.457M762.506 236.534C767.456 232.827 771.839 229.835 775.67 227.457M762.506 236.534C767.722 233.306 772.081 230.26 775.67 227.457M775.67 227.457C803.473 210.204 802.234 225.314 777.875 234.402M762.619 238.481C768.32 236.642 773.417 235.317 777.875 234.402M762.619 238.481C768.421 237.46 773.518 236.027 777.875 234.402M764.025 242.301C768.969 243.972 773.188 245.688 776.729 247.363M764.025 242.301C768.753 244.48 772.993 246.138 776.729 247.363M761.48 245.846C766.272 252.574 769.498 258.152 771.529 262.576M761.48 245.846C764.937 253.113 768.405 258.616 771.529 262.576M771.529 262.576C779.903 280.81 767.97 279.415 761.757 258.073M759.46 247.295C760.454 251.268 761.207 254.857 761.757 258.073M759.46 247.295C760.044 251.325 760.838 254.917 761.757 258.073M761.757 258.073C766.705 287.016 755.224 285.803 755.424 262.153M757.022 246.146C756.737 252.447 756.16 257.768 755.424 262.153M757.022 246.146C755.929 252.269 755.462 257.623 755.424 262.153M748.813 235.904C724.404 221.088 721.949 202.306 746.161 228.203M50.9999 242.622L87 101.122L135 242.622L87 187.622L50.9999 242.622ZM193.692 242.622C106.816 189.596 109.524 158.48 193.692 101.122C137.192 156.622 147.192 191.122 193.692 242.622ZM211.5 101.122V242.622H228.5V187.622H247V242.622H265V101.122H247V156.622H228.5V101.122H211.5ZM277.318 242.622L313.318 101.122L337.318 171.872L361.318 242.622L313.318 187.622L277.318 242.622ZM27 62.1217C27 62.1217 70 71.6217 27 90.1217V62.1217ZM376.182 242.622V101.122H389.182L419.682 170.622L447.182 101.122H463.681V242.622H447.182V156.622L419.682 205.622L389.182 156.622V242.622H376.182ZM471.979 242.622L507.978 101.122L555.978 242.622L507.978 187.622L471.979 242.622ZM573.499 242.622V101.122H586.499L616.999 170.622L644.499 101.122H660.999V242.622H644.499V156.622L616.999 205.622L586.499 156.622V242.622H573.499ZM80 170.622C88 155.122 92 161.622 80.5 170.622H80ZM81 170.622C91.5 159.622 93.5 166.122 81.5 170.622H81ZM82 170.622C92 165.122 94.5 170.622 82.5 170.622H82ZM306.318 170.622C314.318 155.122 318.318 161.622 306.818 170.622H306.318ZM307.318 170.622C317.818 159.622 319.818 166.122 307.818 170.622H307.318ZM308.318 170.622C318.318 165.122 320.818 170.622 308.818 170.622H308.318ZM500.979 170.622C508.979 155.122 512.979 161.622 501.479 170.622H500.979ZM501.979 170.622C512.479 159.622 514.478 166.122 502.478 170.622H501.979ZM502.978 170.622C512.978 165.122 515.478 170.622 503.478 170.622H502.978ZM703.745 170.622C711.745 155.122 715.745 161.622 704.245 170.622H703.745ZM704.745 170.622C715.245 159.622 717.245 166.122 705.245 170.622H704.745ZM705.745 170.622C715.745 165.122 718.245 170.622 706.245 170.622H705.745Z" stroke="black" stroke-opacity="0.5"/>
<path d="M50.9545 138.122C19.9544 152.622 26.5567 179.334 27.8433 222.622C28.0591 217.647 28.535 212.903 29.4056 208.395C31.846 195.757 37.3879 184.969 49 176.122C50.0035 180.213 50.6495 184.018 50.9545 187.622C61.7662 167.986 57.4999 157.622 50.9545 138.122Z" fill="#FF0004" fill-opacity="0.5"/>
<path d="M27.8433 222.622C27.5699 228.921 27.7134 235.59 28 242.622C44.0667 221.058 52.6253 207.361 50.9545 187.622C50.6495 184.018 50.0035 180.213 49 176.122C37.3879 184.969 31.846 195.757 29.4056 208.395C28.8448 212.798 28.3298 217.528 27.8433 222.622Z" fill="#00D5FF" fill-opacity="0.5"/>
<path d="M28 242.622C31.794 218.288 33.7114 215.509 45 193.622M28 242.622C27.7134 235.59 27.5699 228.921 27.8433 222.622M28 242.622C44.0667 221.058 52.6253 207.361 50.9545 187.622M27.8433 222.622C26.5567 179.334 19.9544 152.622 50.9545 138.122C57.4999 157.622 61.7662 167.986 50.9545 187.622M27.8433 222.622C28.3298 217.528 28.8448 212.798 29.4056 208.395M27.8433 222.622C28.0591 217.647 28.535 212.903 29.4056 208.395M50.9545 187.622C50.6495 184.018 50.0035 180.213 49 176.122C37.3879 184.969 31.846 195.757 29.4056 208.395M49 155.622C38.0266 166.616 32.8503 181.348 29.4056 208.395" stroke="black" stroke-opacity="0.5"/>
</svg>
